<svg width="300" height="332" viewBox="0 0 300 332" fill="none" xmlns="http://www.w3.org/2000/svg">
<g style="mix-blend-mode:exclusion">
<g clip-path="url(#clip0_6_21)">
<path d="M124.749 121.662C124.927 121.727 124.881 121.708 124.96 121.734C125.04 121.76 125.198 121.793 125.211 121.793L125.462 121.832L125.838 121.872L126.517 121.918L127.816 121.983L130.381 122.069L135.479 122.187L145.661 122.351L166.012 122.554C179.577 122.679 193.142 122.659 206.7 122.653C220.265 122.613 233.824 122.528 247.389 122.371C254.168 122.259 260.954 122.088 267.733 121.714C271.122 121.55 274.512 121.314 277.902 121.045C279.596 120.887 281.291 120.756 282.986 120.559C283.83 120.461 284.681 120.362 285.525 120.251L286.798 120.054C287.009 120.014 287.22 119.982 287.437 119.936L287.76 119.857L287.925 119.804C287.925 119.804 287.945 119.798 287.958 119.791C288.018 119.824 288.084 119.824 288.136 119.804C288.196 119.824 288.249 119.857 288.308 119.877C288.565 119.969 288.816 120.06 289.079 120.133L289.462 120.251L289.64 120.303C289.64 120.303 289.686 120.316 289.706 120.303C289.706 120.284 289.713 120.277 289.732 120.224C289.765 120.159 289.811 120.139 289.851 120.139L289.95 120.48C290.022 120.467 290.095 120.435 290.135 120.329C290.168 120.244 290.154 120.205 290.154 120.152C290.148 120.08 290.135 120.028 290.121 119.982L290.049 119.726C289.996 119.575 289.937 119.43 289.877 119.293C289.759 119.01 289.62 118.761 289.475 118.512C289.304 118.216 289.112 117.947 288.921 117.678C289.046 117.166 289.159 116.654 289.257 116.149C289.508 114.928 289.706 113.707 289.884 112.487C290.233 110.045 290.464 107.597 290.636 105.149C290.807 102.701 290.88 100.253 290.959 97.7982L291.19 90.4475L292.001 61.0643L292.713 31.6876L293.069 17.0058L293.293 9.67479L293.438 6.02568L293.537 4.22081L293.603 3.34791L293.643 2.95412C293.715 2.76379 293.775 2.55377 293.768 2.34375V1.47085L293.115 0.97205C292.423 0.440435 291.678 0.584824 291.203 0.834224H291.176C291.012 0.86704 290.814 0.893292 290.616 0.912982C290.214 0.958924 289.798 0.991739 289.376 1.02456C288.532 1.09019 287.668 1.14269 286.811 1.18207C285.083 1.26739 283.349 1.33959 281.614 1.39865C278.139 1.51679 274.657 1.59555 271.175 1.66774C264.205 1.80557 257.234 1.91058 250.264 1.98934C236.316 2.15342 222.362 2.23217 208.415 2.27155C194.461 2.28468 180.513 2.21905 166.566 2.10748C159.589 2.04841 152.618 1.96965 145.648 1.85151C142.159 1.79244 138.677 1.72681 135.195 1.6218L129.986 1.42491L127.394 1.28052L126.121 1.18207L125.706 1.13613L125.317 -0.00585938L123.965 1.24114C123.727 1.46429 123.477 1.89745 123.655 2.47501L123.675 2.64565L123.701 3.0657L123.734 3.95828L123.76 5.78284V9.4582L123.707 16.8352L123.496 31.5957L123.028 61.1299C122.863 70.9746 122.712 80.8259 122.646 90.6837C122.613 95.6127 122.606 100.542 122.652 105.477C122.679 107.945 122.725 110.419 122.811 112.9C122.857 114.14 122.91 115.387 123.002 116.648C123.048 117.278 123.101 117.914 123.187 118.571C123.233 118.899 123.279 119.24 123.351 119.608C123.391 119.798 123.437 119.995 123.516 120.238C123.569 120.375 123.595 120.487 123.714 120.71C123.74 120.763 123.76 120.795 123.8 120.861C123.859 120.946 123.919 121.032 123.984 121.111C124.07 121.202 124.07 121.229 124.288 121.393C124.308 121.406 124.334 121.419 124.354 121.432C124.472 121.531 124.604 121.603 124.73 121.649L124.749 121.662ZM125.725 61.1758L126.029 31.6416L126.161 16.868L126.187 9.47133L126.161 5.76315L126.134 4.54897L126.332 4.83118C126.49 5.06089 126.668 5.26435 126.84 5.47437C127.183 5.89441 127.546 6.2882 127.908 6.68199C128.627 7.47613 129.399 8.2112 130.17 8.93315C131.72 10.3705 133.336 11.7225 134.997 13.0023C136.659 14.2821 138.38 15.4832 140.082 16.7105L145.199 20.3662C152.044 25.2098 158.949 29.9615 165.88 34.6673C178.752 43.3831 191.697 51.994 204.484 60.8149C198.675 64.9168 192.852 69.0057 187.009 73.0683L166.282 87.4612C159.391 92.2852 152.506 97.1222 145.727 102.117C142.324 104.598 138.954 107.118 135.611 109.697C133.942 110.99 132.267 112.27 130.625 113.615C129.814 114.305 129.062 115.066 128.396 115.939C128.06 116.378 127.75 116.844 127.48 117.35C127.341 117.606 127.209 117.868 127.104 118.164C127.051 118.301 126.998 118.446 126.959 118.603L126.695 118.59H126.543C126.517 118.439 126.497 118.301 126.477 118.151C126.398 117.586 126.345 116.995 126.293 116.398C126.194 115.204 126.128 113.99 126.068 112.769C125.956 110.334 125.884 107.879 125.831 105.431C125.725 100.522 125.679 95.6061 125.659 90.6903C125.613 80.8521 125.659 71.0074 125.712 61.1693L125.725 61.1758ZM125.798 118.518C125.798 118.518 125.838 118.531 125.857 118.538H125.811L125.798 118.518ZM125.818 118.538C125.818 118.538 125.877 118.551 125.89 118.557L126.022 118.61C126.022 118.61 126.082 118.636 126.115 118.649C126.18 118.682 126.24 118.715 126.299 118.761C126.484 118.912 126.464 118.905 126.523 118.964C126.57 119.01 126.603 119.069 126.635 119.122L126.668 119.174C126.708 119.26 126.695 119.227 126.688 119.22C126.682 119.194 126.662 119.142 126.649 119.083C126.82 119.293 126.945 119.529 126.965 119.739L125.811 118.544L125.818 118.538ZM286.752 119.457L285.485 119.43L282.946 119.345L277.862 119.161C274.472 119.056 271.083 118.938 267.693 118.879C260.914 118.715 254.141 118.682 247.362 118.689L206.694 118.82L166.025 118.892L145.694 118.866L135.538 118.794L130.467 118.715L128.733 118.669C129.227 118.466 129.709 118.249 130.177 118.013C131.12 117.534 132.003 116.976 132.841 116.359L137.833 112.565L147.943 105.07L168.201 90.0799C174.96 85.0854 181.713 80.0843 188.512 75.1357C194.494 70.7908 200.514 66.492 206.562 62.2325C206.878 62.4556 207.201 62.6722 207.524 62.8954C214.416 67.6668 221.268 72.4776 228.093 77.3474L248.49 92.0292C255.282 96.9319 262.061 101.848 268.88 106.704L279.082 114.009L284.14 117.691C284.991 118.288 285.888 118.82 286.844 119.273C286.989 119.345 287.147 119.398 287.299 119.463H286.758L286.752 119.457ZM289.838 9.5304L289.554 16.8877L289.079 31.5826L288.321 60.9658L287.615 90.3425L287.418 97.6801C287.352 100.128 287.259 102.57 287.266 105.018C287.266 107.466 287.319 109.914 287.444 112.362C287.51 113.589 287.582 114.81 287.688 116.037C287.688 116.09 287.695 116.136 287.701 116.188C287.246 115.722 286.771 115.282 286.27 114.882C284.608 113.583 282.914 112.342 281.225 111.089C277.849 108.588 274.453 106.127 271.023 103.712C264.198 98.8417 257.274 94.1097 250.35 89.3842L229.55 75.2603C222.626 70.5414 215.728 65.7832 208.863 60.9789C208.771 60.9133 208.678 60.8477 208.593 60.7886C208.744 60.6836 208.889 60.5786 209.041 60.467C222.791 50.7929 236.778 41.4404 250.719 32.0486L261.158 24.9735L271.558 17.8525L276.748 14.2756C278.475 13.0811 280.223 11.9194 281.924 10.6855C283.626 9.45164 285.288 8.16526 286.897 6.81325C287.833 6.0388 288.75 5.20528 289.653 4.37176C289.653 4.37176 289.653 4.37176 289.66 4.37176C289.811 4.35864 289.97 4.34551 290.115 4.33238L290.022 5.82878L289.844 9.51727L289.838 9.5304ZM127.255 3.62356L129.893 3.75483L135.142 3.92547L145.615 4.18799C152.598 4.33238 159.575 4.43739 166.552 4.52928C180.513 4.70648 194.467 4.79837 208.421 4.88369C222.382 4.9887 236.336 5.0412 250.297 5.02151C257.28 5.00839 264.257 4.98213 271.241 4.89025C274.736 4.84431 278.225 4.7918 281.726 4.69992C282.979 4.6671 284.232 4.62116 285.492 4.57522C285.466 4.58835 285.439 4.60147 285.419 4.6146C283.514 5.56626 281.68 6.60323 279.887 7.71897C278.093 8.82814 276.359 10.0226 274.604 11.1909L269.368 14.7153C262.404 19.4408 255.52 24.2712 248.668 29.1542C234.978 38.9333 221.413 48.8765 207.676 58.5834C207.3 58.8459 206.924 59.1084 206.555 59.3775C193.597 50.3007 180.783 41.0073 167.931 31.7795L157.696 24.4878L147.422 17.2618L142.271 13.6717C140.557 12.4773 138.855 11.2565 137.108 10.1014C135.36 8.94628 133.573 7.85023 131.746 6.81982C130.83 6.30789 129.906 5.80253 128.957 5.32998C128.482 5.09371 128.02 4.84431 127.539 4.62116L126.833 4.27331L126.49 4.09611L126.339 4.01079C126.339 4.01079 126.293 3.97141 126.306 4.02392C126.352 4.00423 126.233 4.26675 126.174 4.22737C126.154 4.22737 126.147 4.22737 126.141 4.22737V4.20112L126.213 3.87296C126.174 3.87296 126.18 3.85327 126.134 3.85327L126.121 3.55137L127.269 3.63669L127.255 3.62356Z" fill="white" fill-opacity="0.5"/>
<path d="M1.29924 37.9484C2.0708 49.4076 3.46226 60.8735 6.04733 72.1424C7.34645 77.7736 8.92256 83.3588 10.9998 88.7865C13.0903 94.2077 15.6424 99.5042 19.0386 104.315C22.4216 109.106 26.7081 113.438 31.9838 116.299C37.2198 119.18 43.2934 120.349 49.1758 120.067C55.256 120.447 61.534 119.706 67.2053 117.231C72.9096 114.777 77.7962 110.707 81.6276 105.949C85.4657 101.171 88.4135 95.7894 90.7677 90.2173C93.089 84.6255 94.8827 78.8434 96.2742 72.989C97.6722 67.1347 98.6878 61.2016 99.4725 55.2554C99.8616 52.2823 100.185 49.2961 100.462 46.3164C100.739 43.3302 100.917 40.3374 101.082 37.3511C101.233 34.3583 101.352 31.3721 101.411 28.3793C101.464 25.3865 101.477 22.3937 101.451 19.4075C101.425 16.4212 101.378 13.4284 101.279 10.4488C101.214 8.95894 101.055 7.46911 100.778 5.9924C100.633 5.25076 100.468 4.51569 100.264 3.78062C100.066 3.05867 99.8023 2.29078 99.5715 1.62134L99.2351 1.50977C98.9846 1.92981 98.879 2.28422 98.7471 2.67144C98.6219 3.04554 98.5229 3.42621 98.4306 3.80687C98.2525 4.56163 98.1207 5.30983 98.0217 6.05803C97.8239 7.55443 97.7448 9.04426 97.7514 10.5275C97.7909 13.4941 97.8371 16.4541 97.8305 19.4206C97.8305 22.3806 97.7909 25.3406 97.7184 28.3005C97.6524 31.2605 97.5601 34.2139 97.4085 37.1674C96.8018 48.9745 95.6939 60.775 93.1484 72.2868C91.902 78.0361 90.2731 83.7067 88.1365 89.1606C85.9735 94.5949 83.2631 99.8323 79.6625 104.4C77.8687 106.678 75.8574 108.778 73.6152 110.602C71.3797 112.427 68.9001 113.943 66.2623 115.098C63.6245 116.253 60.8218 117.034 57.9597 117.461C55.0977 117.888 52.1763 117.933 49.2681 117.743H49.1956H49.1296C46.3533 117.848 43.5704 117.651 40.8732 117.061C38.1761 116.476 35.591 115.472 33.1972 114.127C30.8033 112.781 28.6007 111.088 26.629 109.152C24.6638 107.209 22.9162 105.037 21.3665 102.733C18.2605 98.1128 15.9128 92.9738 14.007 87.6905C12.1143 82.394 10.6503 76.9335 9.48969 71.4007C8.31586 65.868 7.47175 60.2631 6.75294 54.645C6.02754 49.0204 5.53954 43.363 5.1109 37.699C4.89987 34.8637 4.72841 32.0284 4.58333 29.1866C4.43166 26.3447 4.33933 23.5029 4.16787 20.6545C3.99642 17.8061 3.77879 14.9577 3.44907 12.1093C3.27761 10.6851 3.10615 9.25428 2.84237 7.82352C2.71707 7.10813 2.58518 6.39275 2.40712 5.67737C2.3148 5.31639 2.23567 4.96198 2.11037 4.60101C2.05102 4.4238 1.98507 4.24004 1.89934 4.06283C1.85978 3.97095 1.81361 3.87906 1.74767 3.78718C1.66194 3.70842 1.62237 3.54434 1.3454 3.53122L1.35859 3.88563C1.27945 3.88563 1.32562 3.91844 1.32562 3.98407C1.33221 4.05627 1.3454 4.12846 1.35199 4.21378C1.36518 4.37786 1.35859 4.5485 1.35199 4.71915L1.29924 5.76925L1.12778 7.90227C0.995888 9.32648 0.903564 10.7507 0.81124 12.1814C0.639781 15.0364 0.554052 17.9045 0.567241 20.766C0.567241 23.6341 0.692538 26.4957 0.81124 29.3638C0.936537 32.2319 1.08821 35.1 1.27945 37.9615L1.29924 37.9484Z" fill="white" fill-opacity="0.5"/>
<path d="M116.084 168.916C115.728 168.417 115.359 167.931 114.97 167.459C114.594 167.019 114.225 166.454 113.374 165.851C112.958 165.562 112.345 165.273 111.62 165.227C110.894 165.175 110.169 165.424 109.687 165.726C108.725 166.356 108.342 166.979 107.979 167.445C106.45 169.46 105.375 171.633 104.366 173.713C103.363 175.8 102.433 177.828 101.299 179.613C100.607 180.742 99.8154 181.733 98.912 182.56C97.2304 178.767 95.6015 174.954 94.0781 171.088L94.065 171.055C93.8473 170.517 93.3791 170.09 92.7658 169.959C91.7832 169.742 90.8138 170.366 90.5962 171.337C89.1652 177.828 87.0549 184.175 84.3182 190.246C81.8584 184.142 80.2757 177.684 79.6756 171.121V171.095C79.6229 170.556 79.2733 170.064 78.7326 169.854C77.9676 169.559 77.1103 169.933 76.8136 170.694L73.2525 179.81L71.472 184.372L70.5817 186.649C70.43 187.036 70.3113 187.338 70.1663 187.588C70.0278 187.831 69.8893 187.962 69.8497 187.982C69.8101 188.001 69.7838 188.008 69.764 188.001C69.731 188.001 69.5661 187.896 69.4079 187.686C69.2496 187.483 69.0913 187.214 68.9594 186.912C68.821 186.603 68.7286 186.314 68.6033 185.901L67.1328 181.235L64.1982 171.895C63.9476 171.114 63.6706 170.169 62.9782 169.283C62.2726 168.384 61.2042 167.819 60.1821 167.629C59.1467 167.426 58.1378 167.504 57.1881 167.76C56.2122 168.016 55.368 168.489 54.6229 168.981C53.1259 169.992 51.9653 171.193 50.7519 172.066C49.5253 172.952 48.1668 173.661 46.749 174.107C46.0367 174.317 45.3179 174.475 44.5991 174.54C44.3156 174.56 44.032 174.566 43.755 174.56C43.3791 171.003 42.4757 167.498 41.0249 164.21V164.19C40.7611 163.619 40.1082 163.33 39.5015 163.54C38.4992 163.895 37.5825 164.571 36.9692 165.437C36.7714 165.706 36.6197 165.988 36.4812 166.271C36.4219 166.205 36.3757 166.133 36.3032 166.08C35.5646 165.503 34.4897 165.627 33.9093 166.362C32.0035 168.765 30.5065 171.462 29.4712 174.317C28.8183 176.174 28.3303 178.097 28.0468 180.04C26.009 183.663 23.6152 187.089 20.918 190.239C19.4672 191.926 17.9307 193.534 16.3216 195.063C14.7323 196.573 13.1365 197.787 11.5933 197.951C10.8284 198.069 10.004 197.918 9.20609 197.616C8.41474 197.281 7.63658 196.789 6.98372 196.153C6.32427 195.509 5.76373 194.781 5.36146 193.954C4.93281 193.101 4.62287 192.169 4.41844 191.184C3.99638 189.215 3.95682 187.056 4.01617 184.844C4.0953 182.613 4.25357 180.388 4.49098 178.17C4.75476 175.951 5.09108 173.746 5.51313 171.554C5.95497 169.362 6.47594 167.189 7.07605 165.037C7.68275 162.884 8.3488 160.751 9.06761 158.631C9.8062 156.518 10.5844 154.411 11.4219 152.33C11.8505 151.307 12.2858 150.217 12.721 149.252C13.1694 148.268 13.7036 147.329 14.3103 146.45C14.917 145.57 15.6358 144.789 16.4799 144.179C17.324 143.575 18.3528 143.214 19.4804 143.208C19.5596 143.208 19.6321 143.155 19.6585 143.076C19.6915 142.978 19.6387 142.873 19.5398 142.84C18.3923 142.473 17.047 142.564 15.8798 143.05C14.706 143.529 13.697 144.31 12.8001 145.157C11.9231 146.023 11.1779 146.995 10.4986 147.999C10.1557 148.504 9.84576 149.023 9.5622 149.521C9.27204 150.027 8.97528 150.526 8.69831 151.044C7.58383 153.092 6.58145 155.205 5.68459 157.364C4.79433 159.524 4.02936 161.735 3.35671 163.98C2.70385 166.225 2.1565 168.502 1.6751 170.786C1.22007 173.077 0.850776 175.387 0.560615 177.71C0.290238 180.034 0.112185 182.37 0.019861 184.706C-0.0592738 187.05 -0.0460846 189.511 0.501264 192.018C0.771641 193.265 1.1805 194.525 1.7872 195.713C2.38731 196.94 3.23801 198.056 4.22719 199.008C5.21638 199.959 6.4034 200.734 7.72891 201.278C9.06761 201.79 10.5844 202.066 12.0945 201.849C13.6179 201.666 14.9697 201.022 16.0908 200.287C17.2185 199.539 18.1483 198.686 19.0056 197.859C20.6938 196.212 22.3029 194.479 23.8131 192.674C25.2639 190.928 26.6289 189.11 27.8951 187.227C28.0665 188.9 28.3831 190.561 28.8843 192.175L29.2272 193.258C29.3459 193.626 29.5042 194.013 29.669 194.381C30.0119 195.122 30.4208 195.857 30.9945 196.54C31.5551 197.222 32.32 197.885 33.329 198.246C34.3446 198.607 35.5052 198.568 36.468 198.148C37.4374 197.741 38.1167 197.078 38.6706 196.428C39.2114 195.765 39.64 195.076 39.9961 194.394C40.6754 193.061 41.315 191.709 41.8228 190.305C42.8582 187.502 43.5176 184.582 43.8078 181.622C43.9529 180.066 43.9924 178.498 43.9331 176.936C44.2232 176.936 44.5134 176.936 44.8036 176.909C45.7202 176.831 46.6039 176.64 47.4612 176.384C49.1758 175.853 50.7519 175.026 52.1763 174.002C53.6139 172.958 54.7548 171.79 55.9813 170.983C56.5946 170.576 57.2079 170.254 57.8212 170.097C58.4477 169.926 59.1138 169.887 59.6875 170.012C60.2744 170.123 60.7228 170.392 61.0394 170.786C61.3625 171.193 61.5999 171.836 61.8307 172.604L64.673 181.97L66.0974 186.649C66.2029 187.01 66.3546 187.502 66.5458 187.942C66.7437 188.388 66.9811 188.835 67.324 189.281C67.6603 189.714 68.1219 190.193 68.8671 190.469C69.6189 190.751 70.4828 190.659 71.1554 190.285C71.8347 189.904 72.2172 189.366 72.4941 188.913C72.7645 188.454 72.9426 188.001 73.0942 187.627L74.0175 185.363L75.8706 180.834L77.3939 177.106C78.3765 183.256 80.1636 189.288 82.7289 194.984C82.8806 195.319 83.1378 195.601 83.4939 195.785C84.3116 196.199 85.3206 195.877 85.736 195.063V195.043C88.6113 189.452 90.9391 183.591 92.7131 177.559C93.8935 180.48 95.1069 183.381 96.3994 186.255L96.4126 186.282C96.439 186.347 96.472 186.406 96.5115 186.472C97.0457 187.358 98.2063 187.647 99.0966 187.115C101.405 185.737 103.231 183.715 104.517 181.628C105.843 179.535 106.825 177.389 107.808 175.347C108.791 173.306 109.793 171.364 111.033 169.71C111.184 169.487 111.33 169.303 111.448 169.172C111.6 169.329 111.798 169.559 112.009 169.821C112.352 170.235 112.681 170.661 112.991 171.095C114.244 172.821 115.273 174.685 115.86 176.621C116.157 177.585 116.341 178.57 116.388 179.541C116.434 180.5 116.348 181.51 116.111 182.35C115.603 184.096 114.449 185.724 113.005 186.997C111.534 188.257 109.72 189.163 107.36 189.051C107.3 189.051 107.241 189.071 107.195 189.123C107.129 189.209 107.142 189.327 107.221 189.393C108.184 190.18 109.516 190.58 110.848 190.574C112.187 190.567 113.526 190.18 114.699 189.537C117.054 188.257 118.874 186.039 119.652 183.374C120.397 180.683 120.166 178.019 119.441 175.557C118.709 173.103 117.489 170.898 116.064 168.909L116.084 168.916ZM38.3409 168.587C38.42 167.938 38.631 167.327 38.9806 166.874C39.0795 166.743 39.1916 166.618 39.3037 166.507C40.2335 168.922 40.8534 171.449 41.1699 174.022C40.9721 173.93 40.7743 173.838 40.5896 173.733C40.0489 173.438 39.607 172.952 39.2311 172.42C38.5057 171.331 38.1628 169.88 38.3409 168.587ZM41.2359 181.379C40.9325 184.116 40.2863 186.813 39.3103 189.379C38.8289 190.666 38.2354 191.906 37.5891 193.114C36.9824 194.262 36.1581 195.286 35.3931 195.575C34.6611 195.864 33.9687 195.608 33.2565 194.735C32.9136 194.315 32.6168 193.783 32.3728 193.219C32.2475 192.93 32.142 192.654 32.0497 192.339L31.7595 191.368C31.0011 188.776 30.7703 186.045 30.889 183.354C30.9088 182.993 30.9352 182.633 30.9682 182.272C33.0059 178.609 34.7007 174.757 36.013 170.779C36.0328 170.891 36.0526 171.009 36.0789 171.121C36.3098 172.04 36.6527 172.945 37.2198 173.753C37.7803 174.547 38.4728 175.295 39.3696 175.794C40.0159 176.161 40.6885 176.43 41.381 176.627C41.4469 178.209 41.4008 179.797 41.2293 181.372L41.2359 181.379Z" fill="white" fill-opacity="0.5"/>
<path d="M151.622 162.162C151.523 162.097 151.385 162.077 151.266 162.13H151.253C150.6 162.432 150.231 162.74 149.947 163.048C149.67 163.364 149.518 163.679 149.453 164.007L149.182 165.976C148.991 167.288 148.793 168.594 148.562 169.894C148.114 172.499 147.606 175.098 146.973 177.684C146.333 180.264 145.582 182.823 144.639 185.324C144.151 186.564 143.656 187.811 143.076 189.012C142.475 190.2 141.941 191.48 141.229 192.405C140.53 193.364 139.699 193.948 138.763 193.981C137.84 194.033 136.784 193.6 135.874 192.885C135.413 192.53 134.977 192.13 134.575 191.684C134.377 191.46 134.18 191.231 133.995 190.994L133.434 190.233C132.709 189.19 132.03 188.12 131.489 186.978C130.348 184.727 129.563 182.318 129.042 179.87C128.93 179.253 128.798 178.636 128.726 178.019C128.614 177.396 128.614 176.772 128.488 176.149C128.409 175.525 128.225 174.895 128.014 174.245C127.77 173.589 127.499 172.919 126.991 172.178V172.165C126.991 172.165 126.972 172.145 126.958 172.138C126.866 172.047 126.721 172.04 126.622 172.132C125.976 172.736 125.534 173.418 125.257 174.121C124.947 174.823 124.815 175.551 124.743 176.286C124.697 177.015 124.756 177.75 124.822 178.472C124.868 179.2 125.006 179.922 125.125 180.644C125.389 182.082 125.811 183.486 126.325 184.851C126.846 186.216 127.519 187.516 128.264 188.769C129.016 190.016 129.906 191.185 130.856 192.281C131.1 192.55 131.331 192.819 131.588 193.095C131.852 193.37 132.129 193.633 132.412 193.889C132.979 194.401 133.593 194.867 134.265 195.274C134.931 195.687 135.663 196.028 136.461 196.278C137.253 196.521 138.143 196.645 139.033 196.534C139.923 196.416 140.794 196.081 141.506 195.582C142.225 195.083 142.766 194.453 143.214 193.83C144.091 192.543 144.658 191.316 145.298 190.089C145.595 189.465 145.898 188.842 146.208 188.225L147.085 186.348C148.239 183.834 149.307 181.268 150.204 178.636C151.108 176.004 151.846 173.313 152.354 170.576C152.605 169.205 152.803 167.826 152.948 166.442C152.895 165.05 153.884 163.698 151.635 162.176L151.622 162.162Z" fill="white" fill-opacity="0.5"/>
<path d="M169.757 200.065C169.282 198.674 168.834 197.276 168.425 195.858C167.594 193.03 166.862 190.148 166.236 187.228C165.616 184.307 165.095 181.347 164.693 178.361C164.297 175.375 164.02 172.362 163.822 169.343C163.407 163.305 163.446 157.241 163.453 151.19C163.44 148.164 163.426 145.145 163.328 142.126L163.248 139.862C163.209 139.107 163.222 138.352 163.123 137.597C163.037 136.842 162.866 136.088 162.602 135.333C162.332 134.578 161.976 133.823 161.389 133.069C161.376 133.056 161.362 133.036 161.343 133.023C161.244 132.944 161.099 132.964 161.019 133.069C160.446 133.83 160.096 134.591 159.839 135.353C159.588 136.114 159.437 136.875 159.371 137.637C159.292 138.398 159.331 139.159 159.318 139.921C159.311 140.682 159.318 141.443 159.331 142.205C159.364 145.25 159.536 148.289 159.76 151.327C160.235 157.398 160.947 163.45 161.402 169.514L162.061 178.624C162.279 181.669 162.516 184.734 162.925 187.792C163.328 190.851 163.888 193.909 164.726 196.908C165.148 198.411 165.642 199.895 166.203 201.352C166.941 202.723 166.77 204.555 169.54 204.994C169.665 205.014 169.797 204.961 169.869 204.85C170.654 203.655 170.68 202.855 170.489 202.139C170.252 201.444 169.981 200.761 169.751 200.065H169.757Z" fill="white" fill-opacity="0.5"/>
<path d="M299.98 161.499C299.69 160.266 299.294 159.878 298.872 159.721C298.444 159.642 298.008 159.583 297.58 159.517C296.716 159.399 295.845 159.301 294.975 159.216C293.234 159.058 291.486 159.006 289.732 158.986C287.042 158.973 284.358 158.999 281.68 158.92C281.766 156.971 281.845 155.022 281.911 153.066C282.069 148.55 282.181 144.028 282.247 139.506V139.46C282.261 138.679 281.726 137.971 280.928 137.78C280.012 137.57 279.095 138.135 278.878 139.047L274.34 158.428C272.501 158.257 270.654 158.067 268.808 157.929C267.06 157.804 265.312 157.758 263.565 157.804C263.13 157.818 262.694 157.831 262.253 157.864C261.817 157.896 261.382 157.883 260.947 157.975C260.076 158.179 259.212 158.599 258.382 159.734C258.302 159.839 258.302 159.997 258.395 160.102C259.298 161.184 260.169 161.559 261.033 161.71C261.468 161.782 261.896 161.755 262.325 161.769C262.754 161.782 263.189 161.775 263.618 161.769C265.339 161.769 267.06 161.71 268.788 161.591C270.41 161.48 272.039 161.362 273.668 161.283L272.685 165.47L269.533 178.669C268.986 180.88 268.57 183.066 267.297 184.26C266.058 185.507 263.961 185.731 261.85 185.534C260.789 185.435 259.707 185.232 258.606 185.015C257.478 184.799 256.357 184.582 255.223 184.392C252.961 184.005 250.699 183.663 248.417 183.394C243.867 182.83 239.29 182.475 234.7 182.357C232.406 182.292 230.111 182.285 227.816 182.324C226.668 182.351 225.521 182.383 224.373 182.436C223.219 182.482 222.118 182.561 221.083 182.521C220.047 182.488 219.091 182.351 218.28 182.029C217.475 181.707 216.776 181.195 216.17 180.5C214.95 179.102 214.145 177.12 213.38 175.039C213.275 174.751 213.084 174.475 212.82 174.271C212.068 173.681 210.973 173.812 210.38 174.56L210.353 174.6C208.329 177.159 205.994 179.463 203.455 181.497C201.958 182.692 200.376 183.775 198.734 184.759C199.057 183.407 199.459 182.068 199.934 180.762C200.877 178.216 202.077 175.761 203.548 173.471L203.561 173.451C203.831 173.024 203.943 172.493 203.818 171.961C203.574 170.904 202.519 170.242 201.457 170.478L195.146 171.902C193.043 172.375 190.939 172.854 188.855 173.412C188.545 173.497 188.242 173.589 187.932 173.674C187.919 173.471 187.899 173.261 187.879 173.057C187.708 170.544 187.596 168.03 187.556 165.516C187.47 160.482 187.774 155.448 187.991 150.414C188.084 147.901 188.169 145.387 188.143 142.873C188.143 142.243 188.143 141.613 188.123 140.99C188.103 140.36 188.123 139.73 188.051 139.106C187.886 137.846 187.503 136.586 186.402 135.313C186.402 135.306 186.389 135.299 186.382 135.293C186.283 135.201 186.125 135.208 186.033 135.313C184.905 136.56 184.489 137.813 184.292 139.08C184.206 139.71 184.219 140.34 184.193 140.977C184.166 141.607 184.16 142.237 184.147 142.873C184.127 144.133 184.133 145.4 184.16 146.66L184.298 150.447C184.562 155.501 184.997 160.541 185.142 165.588C185.228 168.109 185.248 170.635 185.235 173.162L185.221 174.488C184.358 174.757 183.494 175.033 182.636 175.328C180.585 176.043 178.554 176.831 176.563 177.815C176.503 177.848 176.457 177.907 176.457 177.98C176.457 178.085 176.536 178.17 176.642 178.17C178.864 178.222 181.041 178.078 183.204 177.868C183.87 177.802 184.522 177.71 185.188 177.632L185.156 180.736C185.142 183.263 185.156 185.79 185.261 188.317C185.32 189.577 185.4 190.837 185.492 192.097C185.551 192.727 185.591 193.357 185.663 193.987C185.716 194.302 185.868 194.611 186.132 194.906C186.422 195.208 186.765 195.503 187.417 195.779C187.53 195.825 187.668 195.825 187.787 195.759C188.4 195.405 188.703 195.077 188.961 194.742C189.191 194.414 189.303 194.092 189.323 193.777C189.323 193.147 189.29 192.517 189.271 191.893C189.231 190.633 189.172 189.38 189.099 188.126C189.033 186.873 188.934 185.619 188.829 184.366C188.743 183.112 188.618 181.858 188.506 180.605C188.407 179.469 188.308 178.341 188.202 177.205C188.677 177.126 189.158 177.061 189.633 176.982C191.763 176.614 193.867 176.155 195.977 175.702L197.942 175.276C197.27 176.621 196.676 178.006 196.168 179.423C195.146 182.265 194.447 185.219 194.098 188.212V188.225C194.052 188.592 194.111 188.973 194.289 189.321C194.77 190.285 195.951 190.679 196.92 190.2C200.105 188.618 203.093 186.656 205.823 184.398C207.795 182.764 209.615 180.953 211.27 179.017C211.883 180.29 212.635 181.556 213.697 182.718C214.6 183.709 215.8 184.549 217.126 185.028C218.445 185.508 219.784 185.626 221.017 185.626C222.257 185.626 223.424 185.508 224.532 185.435C225.653 185.35 226.774 185.284 227.895 185.232C230.137 185.127 232.386 185.068 234.635 185.074C239.132 185.114 243.63 185.357 248.107 185.855C250.343 186.105 252.572 186.426 254.794 186.787C255.909 186.965 257.01 187.175 258.118 187.378C259.245 187.595 260.406 187.791 261.6 187.916C262.8 188.021 264.053 188.061 265.339 187.805C265.979 187.693 266.625 187.47 267.251 187.188C267.871 186.886 268.451 186.492 268.959 186.006C269.988 185.035 270.588 183.788 270.984 182.633C271.386 181.458 271.623 180.349 271.907 179.259L275.283 166.113L276.576 161.178C276.958 161.178 277.341 161.184 277.723 161.184L277.44 166.382L276.616 179.87C276.47 184.379 275.369 188.802 277.249 193.482C277.262 193.521 277.295 193.554 277.334 193.58C277.433 193.639 277.559 193.606 277.618 193.515C280.262 189.203 279.867 184.628 280.355 180.132C280.698 175.623 281.021 171.115 281.252 166.599C281.35 164.84 281.436 163.081 281.522 161.322C284.166 161.513 286.798 161.887 289.416 162.3C291.124 162.563 292.832 162.825 294.546 163.002C295.403 163.094 296.261 163.18 297.118 163.239C297.547 163.265 297.975 163.311 298.411 163.324C298.852 163.265 299.321 162.976 299.888 161.841C299.941 161.729 299.96 161.604 299.934 161.48L299.98 161.499ZM277.268 158.684L278.06 155.658L277.895 158.723C277.684 158.71 277.479 158.697 277.268 158.684Z" fill="white" fill-opacity="0.5"/>
</g>
<path d="M0 237H300" stroke="#F1F1F1"/>
<path d="M6.666 283.41C7.27467 283.41 7.81 283.329 8.272 283.168C8.74133 283.007 9.13367 282.783 9.449 282.497C9.77167 282.204 10.0137 281.855 10.175 281.452C10.3363 281.049 10.417 280.605 10.417 280.121C10.417 279.116 10.1053 278.332 9.482 277.767C8.866 277.202 7.92733 276.92 6.666 276.92H4.136V283.41H6.666ZM6.666 275.237C7.66333 275.237 8.52867 275.354 9.262 275.589C10.0027 275.816 10.615 276.143 11.099 276.568C11.583 276.993 11.9423 277.507 12.177 278.108C12.419 278.709 12.54 279.38 12.54 280.121C12.54 280.854 12.4117 281.525 12.155 282.134C11.8983 282.743 11.5207 283.267 11.022 283.707C10.5307 284.147 9.91833 284.492 9.185 284.741C8.459 284.983 7.61933 285.104 6.666 285.104H4.136V291H2.013V275.237H6.666ZM32.4012 285.148L29.9262 278.735C29.8529 278.544 29.7759 278.324 29.6952 278.075C29.6145 277.818 29.5375 277.547 29.4642 277.261C29.3102 277.855 29.1525 278.35 28.9912 278.746L26.5162 285.148H32.4012ZM36.8452 291H35.1952C35.0045 291 34.8505 290.952 34.7332 290.857C34.6159 290.762 34.5279 290.641 34.4692 290.494L32.9952 286.688H25.9222L24.4482 290.494C24.4042 290.626 24.3199 290.743 24.1952 290.846C24.0705 290.949 23.9165 291 23.7332 291H22.0832L28.3862 275.237H30.5422L36.8452 291ZM65.2199 275.237V291H63.3499V279.417C63.3499 279.263 63.3535 279.098 63.3609 278.922C63.3755 278.746 63.3902 278.566 63.4049 278.383L57.9929 288.239C57.8242 288.569 57.5675 288.734 57.2229 288.734H56.9149C56.5702 288.734 56.3135 288.569 56.1449 288.239L50.6229 278.339C50.6669 278.728 50.6889 279.087 50.6889 279.417V291H48.8189V275.237H50.3919C50.5825 275.237 50.7292 275.255 50.8319 275.292C50.9345 275.329 51.0335 275.431 51.1289 275.6L56.5739 285.302C56.6619 285.478 56.7462 285.661 56.8269 285.852C56.9149 286.043 56.9955 286.237 57.0689 286.435C57.1422 286.237 57.2192 286.043 57.2999 285.852C57.3805 285.654 57.4685 285.467 57.5639 285.291L62.9099 275.6C62.9979 275.431 63.0932 275.329 63.1959 275.292C63.3059 275.255 63.4562 275.237 63.6469 275.237H65.2199ZM88.8745 289.262L88.8635 291H79.1505V275.237H88.8635V276.975H81.2845V282.211H87.4225V283.883H81.2845V289.262H88.8745ZM110.691 289.207V291H101.748V275.237H103.871V289.207H110.691ZM131.32 285.148L128.845 278.735C128.771 278.544 128.694 278.324 128.614 278.075C128.533 277.818 128.456 277.547 128.383 277.261C128.229 277.855 128.071 278.35 127.91 278.746L125.435 285.148H131.32ZM135.764 291H134.114C133.923 291 133.769 290.952 133.652 290.857C133.534 290.762 133.446 290.641 133.388 290.494L131.914 286.688H124.841L123.367 290.494C123.323 290.626 123.238 290.743 123.114 290.846C122.989 290.949 122.835 291 122.652 291H121.002L127.305 275.237H129.461L135.764 291ZM176.198 283.124C176.198 284.305 176.011 285.379 175.637 286.347C175.263 287.315 174.735 288.144 174.053 288.833C173.371 289.522 172.549 290.058 171.589 290.439C170.635 290.813 169.579 291 168.421 291H162.536V275.237H168.421C169.579 275.237 170.635 275.428 171.589 275.809C172.549 276.183 173.371 276.718 174.053 277.415C174.735 278.104 175.263 278.933 175.637 279.901C176.011 280.869 176.198 281.943 176.198 283.124ZM174.009 283.124C174.009 282.156 173.877 281.291 173.613 280.528C173.349 279.765 172.975 279.12 172.491 278.592C172.007 278.064 171.42 277.661 170.731 277.382C170.041 277.103 169.271 276.964 168.421 276.964H164.67V289.273H168.421C169.271 289.273 170.041 289.134 170.731 288.855C171.42 288.576 172.007 288.177 172.491 287.656C172.975 287.128 173.349 286.483 173.613 285.72C173.877 284.957 174.009 284.092 174.009 283.124ZM198.896 289.262L198.885 291H189.172V275.237H198.885V276.975H191.306V282.211H197.444V283.883H191.306V289.262H198.896ZM224.54 275.237V291H222.406V283.828H213.903V291H211.769V275.237H213.903V282.266H222.406V275.237H224.54ZM248.194 289.262L248.183 291H238.47V275.237H248.183V276.975H240.604V282.211H246.742V283.883H240.604V289.262H248.194ZM269.13 277.701C269.064 277.811 268.991 277.895 268.91 277.954C268.837 278.005 268.745 278.031 268.635 278.031C268.511 278.031 268.364 277.969 268.195 277.844C268.027 277.719 267.814 277.584 267.557 277.437C267.308 277.283 267.004 277.144 266.644 277.019C266.292 276.894 265.863 276.832 265.357 276.832C264.881 276.832 264.459 276.898 264.092 277.03C263.733 277.155 263.429 277.327 263.179 277.547C262.937 277.767 262.754 278.027 262.629 278.328C262.505 278.621 262.442 278.94 262.442 279.285C262.442 279.725 262.549 280.092 262.761 280.385C262.981 280.671 263.267 280.917 263.619 281.122C263.979 281.327 264.382 281.507 264.829 281.661C265.284 281.808 265.746 281.962 266.215 282.123C266.692 282.284 267.154 282.468 267.601 282.673C268.056 282.871 268.459 283.124 268.811 283.432C269.171 283.74 269.457 284.118 269.669 284.565C269.889 285.012 269.999 285.562 269.999 286.215C269.999 286.904 269.882 287.553 269.647 288.162C269.413 288.763 269.068 289.288 268.613 289.735C268.166 290.182 267.612 290.534 266.952 290.791C266.3 291.048 265.555 291.176 264.719 291.176C263.693 291.176 262.761 290.993 261.925 290.626C261.089 290.252 260.374 289.75 259.78 289.119L260.396 288.107C260.455 288.026 260.525 287.96 260.605 287.909C260.693 287.85 260.789 287.821 260.891 287.821C260.987 287.821 261.093 287.861 261.21 287.942C261.335 288.015 261.474 288.111 261.628 288.228C261.782 288.345 261.958 288.474 262.156 288.613C262.354 288.752 262.578 288.881 262.827 288.998C263.084 289.115 263.374 289.214 263.696 289.295C264.019 289.368 264.382 289.405 264.785 289.405C265.291 289.405 265.742 289.335 266.138 289.196C266.534 289.057 266.868 288.862 267.139 288.613C267.418 288.356 267.631 288.052 267.777 287.7C267.924 287.348 267.997 286.956 267.997 286.523C267.997 286.046 267.887 285.658 267.667 285.357C267.455 285.049 267.172 284.792 266.82 284.587C266.468 284.382 266.065 284.209 265.61 284.07C265.156 283.923 264.694 283.777 264.224 283.63C263.755 283.476 263.293 283.3 262.838 283.102C262.384 282.904 261.98 282.647 261.628 282.332C261.276 282.017 260.99 281.624 260.77 281.155C260.558 280.678 260.451 280.092 260.451 279.395C260.451 278.838 260.558 278.299 260.77 277.778C260.99 277.257 261.306 276.795 261.716 276.392C262.134 275.989 262.644 275.666 263.245 275.424C263.854 275.182 264.551 275.061 265.335 275.061C266.215 275.061 267.015 275.2 267.733 275.479C268.459 275.758 269.097 276.161 269.647 276.689L269.13 277.701ZM291.004 285.148L288.529 278.735C288.456 278.544 288.379 278.324 288.298 278.075C288.218 277.818 288.141 277.547 288.067 277.261C287.913 277.855 287.756 278.35 287.594 278.746L285.119 285.148H291.004ZM295.448 291H293.798C293.608 291 293.454 290.952 293.336 290.857C293.219 290.762 293.131 290.641 293.072 290.494L291.598 286.688H284.525L283.051 290.494C283.007 290.626 282.923 290.743 282.798 290.846C282.674 290.949 282.52 291 282.336 291H280.686L286.989 275.237H289.145L295.448 291ZM5.454 316.79C5.952 316.79 6.39 316.724 6.768 316.592C7.152 316.46 7.473 316.277 7.731 316.043C7.995 315.803 8.193 315.518 8.325 315.188C8.457 314.858 8.523 314.495 8.523 314.099C8.523 313.277 8.268 312.635 7.758 312.173C7.254 311.711 6.486 311.48 5.454 311.48H3.384V316.79H5.454ZM5.454 310.103C6.27 310.103 6.978 310.199 7.578 310.391C8.184 310.577 8.685 310.844 9.081 311.192C9.477 311.54 9.771 311.96 9.963 312.452C10.161 312.944 10.26 313.493 10.26 314.099C10.26 314.699 10.155 315.248 9.945 315.746C9.735 316.244 9.426 316.673 9.018 317.033C8.616 317.393 8.115 317.675 7.515 317.879C6.921 318.077 6.234 318.176 5.454 318.176H3.384V323H1.647V310.103H5.454ZM24.1305 316.349C24.6345 316.349 25.0785 316.289 25.4625 316.169C25.8525 316.043 26.1765 315.869 26.4345 315.647C26.6985 315.419 26.8965 315.149 27.0285 314.837C27.1605 314.525 27.2265 314.18 27.2265 313.802C27.2265 313.034 26.9745 312.455 26.4705 312.065C25.9665 311.675 25.2105 311.48 24.2025 311.48H22.2945V316.349H24.1305ZM30.0885 323H28.5405C28.2225 323 27.9885 322.877 27.8385 322.631L24.4905 318.023C24.3885 317.879 24.2775 317.777 24.1575 317.717C24.0435 317.651 23.8635 317.618 23.6175 317.618H22.2945V323H20.5575V310.103H24.2025C25.0185 310.103 25.7235 310.187 26.3175 310.355C26.9115 310.517 27.4005 310.754 27.7845 311.066C28.1745 311.378 28.4625 311.756 28.6485 312.2C28.8345 312.638 28.9275 313.13 28.9275 313.676C28.9275 314.132 28.8555 314.558 28.7115 314.954C28.5675 315.35 28.3575 315.707 28.0815 316.025C27.8115 316.337 27.4785 316.604 27.0825 316.826C26.6925 317.048 26.2485 317.216 25.7505 317.33C25.9725 317.456 26.1645 317.639 26.3265 317.879L30.0885 323ZM51.7357 316.556C51.7357 317.522 51.5827 318.41 51.2767 319.22C50.9707 320.024 50.5387 320.717 49.9807 321.299C49.4227 321.881 48.7507 322.334 47.9647 322.658C47.1847 322.976 46.3207 323.135 45.3727 323.135C44.4247 323.135 43.5607 322.976 42.7807 322.658C42.0007 322.334 41.3317 321.881 40.7737 321.299C40.2157 320.717 39.7837 320.024 39.4777 319.22C39.1717 318.41 39.0187 317.522 39.0187 316.556C39.0187 315.59 39.1717 314.705 39.4777 313.901C39.7837 313.091 40.2157 312.395 40.7737 311.813C41.3317 311.225 42.0007 310.769 42.7807 310.445C43.5607 310.121 44.4247 309.959 45.3727 309.959C46.3207 309.959 47.1847 310.121 47.9647 310.445C48.7507 310.769 49.4227 311.225 49.9807 311.813C50.5387 312.395 50.9707 313.091 51.2767 313.901C51.5827 314.705 51.7357 315.59 51.7357 316.556ZM49.9447 316.556C49.9447 315.764 49.8367 315.053 49.6207 314.423C49.4047 313.793 49.0987 313.262 48.7027 312.83C48.3067 312.392 47.8267 312.056 47.2627 311.822C46.6987 311.588 46.0687 311.471 45.3727 311.471C44.6827 311.471 44.0557 311.588 43.4917 311.822C42.9277 312.056 42.4447 312.392 42.0427 312.83C41.6467 313.262 41.3407 313.793 41.1247 314.423C40.9087 315.053 40.8007 315.764 40.8007 316.556C40.8007 317.348 40.9087 318.059 41.1247 318.689C41.3407 319.313 41.6467 319.844 42.0427 320.282C42.4447 320.714 42.9277 321.047 43.4917 321.281C44.0557 321.509 44.6827 321.623 45.3727 321.623C46.0687 321.623 46.6987 321.509 47.2627 321.281C47.8267 321.047 48.3067 320.714 48.7027 320.282C49.0987 319.844 49.4047 319.313 49.6207 318.689C49.8367 318.059 49.9447 317.348 49.9447 316.556ZM73.5117 316.556C73.5117 317.522 73.3587 318.401 73.0527 319.193C72.7467 319.985 72.3147 320.663 71.7567 321.227C71.1987 321.791 70.5267 322.229 69.7407 322.541C68.9607 322.847 68.0967 323 67.1487 323H62.3337V310.103H67.1487C68.0967 310.103 68.9607 310.259 69.7407 310.571C70.5267 310.877 71.1987 311.315 71.7567 311.885C72.3147 312.449 72.7467 313.127 73.0527 313.919C73.3587 314.711 73.5117 315.59 73.5117 316.556ZM71.7207 316.556C71.7207 315.764 71.6127 315.056 71.3967 314.432C71.1807 313.808 70.8747 313.28 70.4787 312.848C70.0827 312.416 69.6027 312.086 69.0387 311.858C68.4747 311.63 67.8447 311.516 67.1487 311.516H64.0797V321.587H67.1487C67.8447 321.587 68.4747 321.473 69.0387 321.245C69.6027 321.017 70.0827 320.69 70.4787 320.264C70.8747 319.832 71.1807 319.304 71.3967 318.68C71.6127 318.056 71.7207 317.348 71.7207 316.556ZM89.1041 321.614C89.6381 321.614 90.1151 321.524 90.5351 321.344C90.9551 321.164 91.3091 320.912 91.5971 320.588C91.8911 320.264 92.1131 319.877 92.2631 319.427C92.4191 318.977 92.4971 318.482 92.4971 317.942V310.103H94.2341V317.942C94.2341 318.686 94.1141 319.376 93.8741 320.012C93.6401 320.648 93.3011 321.2 92.8571 321.668C92.4191 322.13 91.8821 322.493 91.2461 322.757C90.6101 323.021 89.8961 323.153 89.1041 323.153C88.3121 323.153 87.5981 323.021 86.9621 322.757C86.3261 322.493 85.7861 322.13 85.3421 321.668C84.8981 321.2 84.5561 320.648 84.3161 320.012C84.0821 319.376 83.9651 318.686 83.9651 317.942V310.103H85.7021V317.933C85.7021 318.473 85.7771 318.968 85.9271 319.418C86.0831 319.868 86.3051 320.255 86.5931 320.579C86.8871 320.903 87.2441 321.158 87.6641 321.344C88.0901 321.524 88.5701 321.614 89.1041 321.614ZM114.517 320.336C114.613 320.336 114.697 320.375 114.769 320.453L115.462 321.2C114.934 321.812 114.292 322.289 113.536 322.631C112.786 322.973 111.877 323.144 110.809 323.144C109.885 323.144 109.045 322.985 108.289 322.667C107.533 322.343 106.888 321.893 106.354 321.317C105.82 320.735 105.406 320.039 105.112 319.229C104.818 318.419 104.671 317.528 104.671 316.556C104.671 315.584 104.824 314.693 105.13 313.883C105.436 313.073 105.865 312.377 106.417 311.795C106.975 311.213 107.641 310.763 108.415 310.445C109.189 310.121 110.044 309.959 110.98 309.959C111.898 309.959 112.708 310.106 113.41 310.4C114.112 310.694 114.73 311.093 115.264 311.597L114.688 312.398C114.652 312.458 114.604 312.509 114.544 312.551C114.49 312.587 114.415 312.605 114.319 312.605C114.211 312.605 114.079 312.548 113.923 312.434C113.767 312.314 113.563 312.182 113.311 312.038C113.059 311.894 112.744 311.765 112.366 311.651C111.988 311.531 111.523 311.471 110.971 311.471C110.305 311.471 109.696 311.588 109.144 311.822C108.592 312.05 108.115 312.383 107.713 312.821C107.317 313.259 107.008 313.793 106.786 314.423C106.564 315.053 106.453 315.764 106.453 316.556C106.453 317.36 106.567 318.077 106.795 318.707C107.029 319.337 107.344 319.871 107.74 320.309C108.142 320.741 108.613 321.071 109.153 321.299C109.699 321.527 110.287 321.641 110.917 321.641C111.301 321.641 111.646 321.62 111.952 321.578C112.264 321.53 112.549 321.458 112.807 321.362C113.071 321.266 113.314 321.146 113.536 321.002C113.764 320.852 113.989 320.675 114.211 320.471C114.313 320.381 114.415 320.336 114.517 320.336ZM134.308 311.57H130.132V323H128.395V311.57H124.21V310.103H134.308V311.57ZM167.66 316.556C167.66 317.522 167.507 318.401 167.201 319.193C166.895 319.985 166.463 320.663 165.905 321.227C165.347 321.791 164.675 322.229 163.889 322.541C163.109 322.847 162.245 323 161.297 323H156.482V310.103H161.297C162.245 310.103 163.109 310.259 163.889 310.571C164.675 310.877 165.347 311.315 165.905 311.885C166.463 312.449 166.895 313.127 167.201 313.919C167.507 314.711 167.66 315.59 167.66 316.556ZM165.869 316.556C165.869 315.764 165.761 315.056 165.545 314.432C165.329 313.808 165.023 313.28 164.627 312.848C164.231 312.416 163.751 312.086 163.187 311.858C162.623 311.63 161.993 311.516 161.297 311.516H158.228V321.587H161.297C161.993 321.587 162.623 321.473 163.187 321.245C163.751 321.017 164.231 320.69 164.627 320.264C165.023 319.832 165.329 319.304 165.545 318.68C165.761 318.056 165.869 317.348 165.869 316.556ZM186.232 321.578L186.223 323H178.276V310.103H186.223V311.525H180.022V315.809H185.044V317.177H180.022V321.578H186.232ZM203.361 312.119C203.307 312.209 203.247 312.278 203.181 312.326C203.121 312.368 203.046 312.389 202.956 312.389C202.854 312.389 202.734 312.338 202.596 312.236C202.458 312.134 202.284 312.023 202.074 311.903C201.87 311.777 201.621 311.663 201.327 311.561C201.039 311.459 200.688 311.408 200.274 311.408C199.884 311.408 199.539 311.462 199.239 311.57C198.945 311.672 198.696 311.813 198.492 311.993C198.294 312.173 198.144 312.386 198.042 312.632C197.94 312.872 197.889 313.133 197.889 313.415C197.889 313.775 197.976 314.075 198.15 314.315C198.33 314.549 198.564 314.75 198.852 314.918C199.146 315.086 199.476 315.233 199.842 315.359C200.214 315.479 200.592 315.605 200.976 315.737C201.366 315.869 201.744 316.019 202.11 316.187C202.482 316.349 202.812 316.556 203.1 316.808C203.394 317.06 203.628 317.369 203.802 317.735C203.982 318.101 204.072 318.551 204.072 319.085C204.072 319.649 203.976 320.18 203.784 320.678C203.592 321.17 203.31 321.599 202.938 321.965C202.572 322.331 202.119 322.619 201.579 322.829C201.045 323.039 200.436 323.144 199.752 323.144C198.912 323.144 198.15 322.994 197.466 322.694C196.782 322.388 196.197 321.977 195.711 321.461L196.215 320.633C196.263 320.567 196.32 320.513 196.386 320.471C196.458 320.423 196.536 320.399 196.62 320.399C196.698 320.399 196.785 320.432 196.881 320.498C196.983 320.558 197.097 320.636 197.223 320.732C197.349 320.828 197.493 320.933 197.655 321.047C197.817 321.161 198 321.266 198.204 321.362C198.414 321.458 198.651 321.539 198.915 321.605C199.179 321.665 199.476 321.695 199.806 321.695C200.22 321.695 200.589 321.638 200.913 321.524C201.237 321.41 201.51 321.251 201.732 321.047C201.96 320.837 202.134 320.588 202.254 320.3C202.374 320.012 202.434 319.691 202.434 319.337C202.434 318.947 202.344 318.629 202.164 318.383C201.99 318.131 201.759 317.921 201.471 317.753C201.183 317.585 200.853 317.444 200.481 317.33C200.109 317.21 199.731 317.09 199.347 316.97C198.963 316.844 198.585 316.7 198.213 316.538C197.841 316.376 197.511 316.166 197.223 315.908C196.935 315.65 196.701 315.329 196.521 314.945C196.347 314.555 196.26 314.075 196.26 313.505C196.26 313.049 196.347 312.608 196.521 312.182C196.701 311.756 196.959 311.378 197.295 311.048C197.637 310.718 198.054 310.454 198.546 310.256C199.044 310.058 199.614 309.959 200.256 309.959C200.976 309.959 201.63 310.073 202.218 310.301C202.812 310.529 203.334 310.859 203.784 311.291L203.361 312.119ZM216.384 323H214.638V310.103H216.384V323ZM238.259 316.799V321.749C237.611 322.217 236.918 322.568 236.18 322.802C235.448 323.03 234.644 323.144 233.768 323.144C232.73 323.144 231.794 322.985 230.96 322.667C230.126 322.343 229.412 321.893 228.818 321.317C228.23 320.735 227.777 320.039 227.459 319.229C227.141 318.419 226.982 317.528 226.982 316.556C226.982 315.572 227.135 314.675 227.441 313.865C227.753 313.055 228.194 312.362 228.764 311.786C229.334 311.204 230.027 310.754 230.843 310.436C231.659 310.118 232.571 309.959 233.579 309.959C234.089 309.959 234.563 309.998 235.001 310.076C235.439 310.148 235.844 310.256 236.216 310.4C236.588 310.538 236.933 310.709 237.251 310.913C237.569 311.111 237.866 311.336 238.142 311.588L237.647 312.38C237.569 312.5 237.467 312.578 237.341 312.614C237.221 312.644 237.086 312.614 236.936 312.524C236.792 312.44 236.627 312.338 236.441 312.218C236.255 312.098 236.027 311.984 235.757 311.876C235.493 311.762 235.178 311.666 234.812 311.588C234.452 311.51 234.023 311.471 233.525 311.471C232.799 311.471 232.142 311.591 231.554 311.831C230.966 312.065 230.465 312.404 230.051 312.848C229.637 313.286 229.319 313.82 229.097 314.45C228.875 315.074 228.764 315.776 228.764 316.556C228.764 317.366 228.878 318.092 229.106 318.734C229.34 319.37 229.67 319.913 230.096 320.363C230.528 320.807 231.05 321.146 231.662 321.38C232.274 321.614 232.961 321.731 233.723 321.731C234.323 321.731 234.854 321.665 235.316 321.533C235.784 321.395 236.24 321.206 236.684 320.966V318.131H234.677C234.563 318.131 234.47 318.098 234.398 318.032C234.332 317.966 234.299 317.885 234.299 317.789V316.799H238.259ZM259.48 310.103V323H258.607C258.469 323 258.352 322.976 258.256 322.928C258.166 322.88 258.076 322.799 257.986 322.685L250.525 312.965C250.537 313.115 250.546 313.262 250.552 313.406C250.558 313.55 250.561 313.685 250.561 313.811V323H249.031V310.103H249.931C250.009 310.103 250.075 310.109 250.129 310.121C250.183 310.127 250.231 310.142 250.273 310.166C250.315 310.184 250.357 310.214 250.399 310.256C250.441 310.292 250.486 310.34 250.534 310.4L257.995 320.111C257.983 319.955 257.971 319.805 257.959 319.661C257.953 319.511 257.95 319.37 257.95 319.238V310.103H259.48ZM278.833 321.578L278.824 323H270.877V310.103H278.824V311.525H272.623V315.809H277.645V317.177H272.623V321.578H278.833ZM292.939 316.349C293.443 316.349 293.887 316.289 294.271 316.169C294.661 316.043 294.985 315.869 295.243 315.647C295.507 315.419 295.705 315.149 295.837 314.837C295.969 314.525 296.035 314.18 296.035 313.802C296.035 313.034 295.783 312.455 295.279 312.065C294.775 311.675 294.019 311.48 293.011 311.48H291.103V316.349H292.939ZM298.897 323H297.349C297.031 323 296.797 322.877 296.647 322.631L293.299 318.023C293.197 317.879 293.086 317.777 292.966 317.717C292.852 317.651 292.672 317.618 292.426 317.618H291.103V323H289.366V310.103H293.011C293.827 310.103 294.532 310.187 295.126 310.355C295.72 310.517 296.209 310.754 296.593 311.066C296.983 311.378 297.271 311.756 297.457 312.2C297.643 312.638 297.736 313.13 297.736 313.676C297.736 314.132 297.664 314.558 297.52 314.954C297.376 315.35 297.166 315.707 296.89 316.025C296.62 316.337 296.287 316.604 295.891 316.826C295.501 317.048 295.057 317.216 294.559 317.33C294.781 317.456 294.973 317.639 295.135 317.879L298.897 323Z" fill="#D8CED0"/>
</g>
<defs>
<clipPath id="clip0_6_21">
<rect width="300" height="205" fill="white"/>
</clipPath>
</defs>
</svg>
